<?xml version="1.0" encoding="utf-8"?><svg width="947" height="605" viewBox="0 0 947 605" xmlns="http://www.w3.org/2000/svg" xmlns:xlink="http://www.w3.org/1999/xlink"><svg width="38" height="32" fill="none" viewBox="0 0 38 32" id="Arrow" x="747" y="487" xmlns="http://www.w3.org/2000/svg"><path fill-rule="evenodd" clip-rule="evenodd" d="M3.6 3.7a.5.5 0 01.7-.1l3.6 2.7a.5.5 0 01-.6.8L4.693 5.145C7.7 21.508 22.971 29.405 35.91 27.008l.182.984C22.65 30.48 6.771 22.262 3.694 5.242L1.7 7.9a.5.5 0 01-.8-.6l2.7-3.6z" fill="#8A91AB"/></svg><svg width="200" height="200" fill="none" viewBox="0 0 200 200" id="Clear" x="216" y="405" xmlns="http://www.w3.org/2000/svg"><g filter="url(#bfilter0_d_1506_805)"><path d="M99.59 151.165c28.484 0 51.575-23.091 51.575-51.575S128.074 48.014 99.59 48.014 48.014 71.106 48.014 99.59s23.092 51.575 51.576 51.575z" fill="#FA9E42"/></g><path fill-rule="evenodd" clip-rule="evenodd" d="M99.019 30.002a72.473 72.473 0 011.142 0 5 5 0 11-.08 10 61.823 61.823 0 00-.982 0 5 5 0 01-.08-10zm28.064 10.91a5 5 0 016.817-1.879c.33.188.659.378.986.57a5 5 0 01-5.079 8.615c-.28-.165-.561-.328-.844-.489a5 5 0 01-1.88-6.816zm-54.986 0a5 5 0 01-1.88 6.817c-.283.16-.564.324-.844.489a5 5 0 01-5.079-8.615c.327-.192.656-.383.986-.57a5 5 0 016.817 1.88zm80.633 21.614a5 5 0 016.847 1.768c.192.327.382.656.57.986a5 5 0 01-8.696 4.937 64.506 64.506 0 00-.489-.844 5 5 0 011.768-6.847zm-106.28 0a5 5 0 011.768 6.847c-.165.28-.328.561-.489.844a5 5 0 01-8.696-4.937c.188-.33.378-.659.57-.986a5 5 0 016.847-1.767zM164.137 94.06a5 5 0 015.041 4.96 108.683 108.683 0 010 1.142 5 5 0 01-10-.08l.002-.491-.002-.49a5 5 0 014.959-5.04zm-129.095 0a5 5 0 014.96 5.04 61.684 61.684 0 000 .982 5 5 0 11-10 .08 72.364 72.364 0 010-1.142 5 5 0 015.04-4.96zm123.225 33.024a5 5 0 011.88 6.817c-.188.33-.378.659-.57.986a5 5 0 01-8.615-5.079c.165-.28.328-.561.489-.844a5 5 0 016.816-1.88zm-117.354 0a5 5 0 016.816 1.88c.16.283.324.564.489.844a5 5 0 01-8.614 5.079 72.041 72.041 0 01-.571-.986 5 5 0 011.88-6.817zm95.74 25.647a5 5 0 01-1.767 6.847c-.327.192-.656.382-.986.57a5 5 0 01-4.937-8.696c.283-.161.564-.324.844-.489a5 5 0 016.846 1.768zm-74.126 0a5 5 0 016.846-1.768c.28.165.561.328.844.489a5 5 0 11-4.937 8.696 82.86 82.86 0 01-.986-.57 5 5 0 01-1.767-6.847zm31.532 11.407a5 5 0 015.04-4.959l.49.002.492-.002a5 5 0 11.08 10l-.571.002-.277-.001-.294-.001a5 5 0 01-4.96-5.041z" fill="#FA9E42"/><g filter="url(#bfilter1_f_1506_805)"><path d="M96.002 93.115c18.042-9.583 28.248-25.673 22.796-35.938-5.452-10.265-24.498-10.819-42.54-1.236C58.216 65.524 48.01 81.614 53.462 91.88c5.452 10.266 24.498 10.819 42.54 1.236z" fill="#F8E36F"/></g><defs><filter id="bfilter0_d_1506_805" x="28.014" y="20.014" width="163.151" height="163.151" filterUnits="userSpaceOnUse" color-interpolation-filters="sRGB"><feFlood flood-opacity="0" result="BackgroundImageFix"/><feColorMatrix in="SourceAlpha" values="0 0 0 0 0 0 0 0 0 0 0 0 0 0 0 0 0 0 127 0" result="hardAlpha"/><feOffset dx="10" dy="2"/><feGaussianBlur stdDeviation="15"/><feColorMatrix values="0 0 0 0 0 0 0 0 0 0 0 0 0 0 0 0 0 0 0.25 0"/><feBlend in2="BackgroundImageFix" result="effect1_dropShadow_1506_805"/><feBlend in="SourceGraphic" in2="effect1_dropShadow_1506_805" result="shape"/></filter><filter id="bfilter1_f_1506_805" x="31.994" y="29.101" width="108.272" height="90.854" filterUnits="userSpaceOnUse" color-interpolation-filters="sRGB"><feFlood flood-opacity="0" result="BackgroundImageFix"/><feBlend in="SourceGraphic" in2="BackgroundImageFix" result="shape"/><feGaussianBlur stdDeviation="10" result="effect1_foregroundBlur_1506_805"/></filter></defs></svg><svg width="249" height="200" fill="none" viewBox="0 0 249 200" id="Clouds" xmlns="http://www.w3.org/2000/svg"><g filter="url(#cfilter0_d_1506_810)"><path d="M160.244 158.694H58.297a38.3 38.3 0 01-28.622-63.713 38.298 38.298 0 0125.59-12.762 47.94 47.94 0 0189.269-16.748 47.953 47.953 0 0158.599 66.714 38.31 38.31 0 01-13.915 19.18 38.308 38.308 0 01-22.534 7.329h-6.44z" fill="url(#cpaint0_linear_1506_810)"/><path d="M166.684 158.161c4.112 0 8.154-.657 12.015-1.951a37.601 37.601 0 0010.418-5.43 37.918 37.918 0 008.188-8.276 37.584 37.584 0 005.321-10.483l.013-.038.018-.037a47.153 47.153 0 003.688-10.126c.861-3.6 1.297-7.32 1.297-11.056 0-3.216-.324-6.43-.963-9.553a47.162 47.162 0 00-7.131-16.947 47.762 47.762 0 00-5.788-7.015 47.414 47.414 0 00-15.066-10.158 47.168 47.168 0 00-8.896-2.761 47.755 47.755 0 00-9.553-.963c-5.325 0-10.553.876-15.536 2.605l-.421.146-.218-.388a47.645 47.645 0 00-17.061-17.515 47.145 47.145 0 00-24.28-6.683A47.202 47.202 0 0071.5 53.275a47.435 47.435 0 00-10.376 12.932 46.956 46.956 0 00-5.33 16.085l-.06.424-.426.033c-4.771.374-9.361 1.63-13.643 3.733A37.729 37.729 0 0030.623 94.7a37.64 37.64 0 00-10.09 25.697 37.53 37.53 0 002.967 14.7 37.744 37.744 0 003.482 6.414 38.025 38.025 0 0010.201 10.202 37.8 37.8 0 006.415 3.481 37.53 37.53 0 0014.7 2.968h108.386zm0 .532H58.297c-21.15 0-38.297-17.146-38.297-38.297 0-20.131 15.532-36.634 35.266-38.179C58.53 58.924 78.536 41 102.729 41c17.948 0 33.592 9.864 41.805 24.469a47.86 47.86 0 0115.711-2.635c26.471 0 47.929 21.46 47.929 47.93a47.73 47.73 0 01-5.041 21.421c-4.971 15.383-19.411 26.508-36.449 26.508z" fill="#fff" fill-opacity=".5"/></g><defs><linearGradient id="cpaint0_linear_1506_810" x1="114.1" y1="41.001" x2="168.763" y2="173.161" gradientUnits="userSpaceOnUse"><stop stop-color="#fff" stop-opacity=".604"/><stop offset="1" stop-color="#fff" stop-opacity=".2"/></linearGradient><filter id="cfilter0_d_1506_810" x="0" y="13" width="248.174" height="177.694" filterUnits="userSpaceOnUse" color-interpolation-filters="sRGB"><feFlood flood-opacity="0" result="BackgroundImageFix"/><feColorMatrix in="SourceAlpha" values="0 0 0 0 0 0 0 0 0 0 0 0 0 0 0 0 0 0 127 0" result="hardAlpha"/><feOffset dx="10" dy="2"/><feGaussianBlur stdDeviation="15"/><feColorMatrix values="0 0 0 0 0 0 0 0 0 0 0 0 0 0 0 0 0 0 0.25 0"/><feBlend in2="BackgroundImageFix" result="effect1_dropShadow_1506_810"/><feBlend in="SourceGraphic" in2="effect1_dropShadow_1506_810" result="shape"/></filter></defs></svg><svg width="249" height="205" fill="none" viewBox="0 0 249 205" id="Drizzle" y="200" xmlns="http://www.w3.org/2000/svg"><path d="M71.646 133.421c.381.005 4.25 7.162 4.25 9.943 0 2.781-1.903 5.036-4.25 5.036-2.348 0-4.251-2.255-4.251-5.036 0-2.781 3.87-9.948 4.25-9.943z" fill="#42A0F0"/><path d="M69.119 144.402c.595-.205 1.095-1.003 1.117-1.782.021-.779-.443-1.244-1.038-1.04-.595.205-1.095 1.003-1.117 1.782-.022.779.443 1.245 1.038 1.04z" fill="#fff"/><path d="M101.144 133.421c.381.005 4.251 7.162 4.251 9.943 0 2.781-1.903 5.036-4.251 5.036-2.347 0-4.25-2.255-4.25-5.036 0-2.781 3.869-9.948 4.25-9.943z" fill="#42A0F0"/><path d="M98.617 144.402c.595-.205 1.095-1.003 1.117-1.782.022-.779-.443-1.244-1.037-1.04-.595.205-1.095 1.003-1.117 1.782-.022.779.442 1.245 1.037 1.04z" fill="#fff"/><path d="M132.792 133.421c.381.005 4.251 7.162 4.251 9.943 0 2.781-1.903 5.036-4.251 5.036-2.347 0-4.251-2.255-4.251-5.036 0-2.781 3.87-9.948 4.251-9.943z" fill="#42A0F0"/><path d="M130.265 144.402c.595-.205 1.095-1.003 1.117-1.782.022-.779-.443-1.244-1.038-1.04-.594.205-1.094 1.003-1.116 1.782-.022.779.442 1.245 1.037 1.04z" fill="#fff"/><path d="M162.022 132.57c.381.005 4.251 7.162 4.251 9.943 0 2.781-1.903 5.036-4.251 5.036-2.347 0-4.251-2.255-4.251-5.036 0-2.781 3.87-9.948 4.251-9.943z" fill="#42A0F0"/><path d="M159.495 143.551c.595-.205 1.095-1.003 1.117-1.782.022-.779-.443-1.244-1.037-1.04-.595.205-1.095 1.003-1.117 1.782-.022.779.443 1.245 1.037 1.04z" fill="#fff"/><path d="M116.038 152.427c.381.005 4.25 7.162 4.25 9.943 0 2.781-1.903 5.035-4.25 5.035-2.348 0-4.251-2.254-4.251-5.035s3.869-9.948 4.251-9.943z" fill="#42A0F0"/><path d="M113.511 163.407c.595-.205 1.095-1.002 1.116-1.781.022-.779-.442-1.245-1.037-1.04-.595.205-1.095 1.002-1.117 1.782-.022.779.443 1.244 1.038 1.039z" fill="#fff"/><path d="M147.685 152.427c.381.005 4.251 7.162 4.251 9.943 0 2.781-1.904 5.035-4.251 5.035-2.348 0-4.251-2.254-4.251-5.035s3.87-9.948 4.251-9.943z" fill="#42A0F0"/><path d="M145.158 163.407c.595-.205 1.095-1.002 1.117-1.781.022-.779-.443-1.245-1.038-1.04-.595.205-1.095 1.002-1.117 1.782-.021.779.443 1.244 1.038 1.039z" fill="#fff"/><path d="M181.194 152.427c.381.005 4.251 7.162 4.251 9.943 0 2.781-1.904 5.035-4.251 5.035-2.347 0-4.251-2.254-4.251-5.035s3.87-9.948 4.251-9.943z" fill="#42A0F0"/><path d="M178.667 163.407c.595-.205 1.095-1.002 1.117-1.781.022-.779-.443-1.245-1.038-1.04-.595.205-1.095 1.002-1.116 1.782-.022.779.442 1.244 1.037 1.039z" fill="#fff"/><path d="M84.39 153.278c.382.005 4.251 7.162 4.251 9.943 0 2.781-1.903 5.035-4.25 5.035-2.348 0-4.252-2.254-4.252-5.035s3.87-9.948 4.251-9.943z" fill="#42A0F0"/><path d="M81.863 164.258c.595-.204 1.095-1.002 1.117-1.781.022-.779-.443-1.245-1.038-1.04-.594.205-1.094 1.003-1.116 1.782-.022.779.442 1.244 1.037 1.039z" fill="#fff"/><path d="M54.604 152.427c.381.005 4.25 7.162 4.25 9.943 0 2.781-1.902 5.035-4.25 5.035-2.347 0-4.25-2.254-4.25-5.035s3.869-9.948 4.25-9.943z" fill="#42A0F0"/><path d="M52.077 163.407c.595-.205 1.095-1.002 1.117-1.781.022-.779-.443-1.245-1.038-1.04-.595.205-1.095 1.002-1.116 1.782-.022.779.442 1.244 1.037 1.039z" fill="#fff"/><path d="M71.646 167.461c.381.005 4.25 7.162 4.25 9.943 0 2.781-1.903 5.036-4.25 5.036-2.348 0-4.251-2.255-4.251-5.036 0-2.781 3.87-9.948 4.25-9.943z" fill="#42A0F0"/><path d="M69.119 178.442c.595-.205 1.095-1.003 1.117-1.782.021-.779-.443-1.245-1.038-1.04-.595.205-1.095 1.003-1.117 1.782-.022.779.443 1.244 1.038 1.04z" fill="#fff"/><path d="M101.144 167.461c.381.005 4.251 7.162 4.251 9.943 0 2.781-1.903 5.036-4.251 5.036-2.347 0-4.25-2.255-4.25-5.036 0-2.781 3.869-9.948 4.25-9.943z" fill="#42A0F0"/><path d="M98.617 178.442c.595-.205 1.095-1.003 1.117-1.782.022-.779-.443-1.245-1.037-1.04-.595.205-1.095 1.003-1.117 1.782-.022.779.442 1.244 1.037 1.04z" fill="#fff"/><path d="M132.792 167.461c.381.005 4.251 7.162 4.251 9.943 0 2.781-1.903 5.036-4.251 5.036-2.347 0-4.251-2.255-4.251-5.036 0-2.781 3.87-9.948 4.251-9.943z" fill="#42A0F0"/><path d="M130.265 178.442c.595-.205 1.095-1.003 1.117-1.782.022-.779-.443-1.245-1.038-1.04-.594.205-1.094 1.003-1.116 1.782-.022.779.442 1.244 1.037 1.04z" fill="#fff"/><path d="M162.022 167.461c.381.005 4.251 7.162 4.251 9.943 0 2.781-1.903 5.036-4.251 5.036-2.347 0-4.251-2.255-4.251-5.036 0-2.781 3.87-9.948 4.251-9.943z" fill="#42A0F0"/><path d="M159.495 178.442c.595-.205 1.095-1.003 1.117-1.782.022-.779-.443-1.245-1.037-1.04-.595.205-1.095 1.003-1.117 1.782-.022.779.443 1.244 1.037 1.04z" fill="#fff"/><g filter="url(#dfilter0_d_1506_807)"><path d="M160.245 145.694H58.298a38.3 38.3 0 01-28.622-63.713 38.299 38.299 0 0125.59-12.761 47.94 47.94 0 0189.269-16.75 47.953 47.953 0 0158.599 66.715 38.316 38.316 0 01-36.449 26.509h-6.44z" fill="url(#dpaint0_linear_1506_807)"/><path d="M166.684 145.161c4.112 0 8.154-.657 12.015-1.951a37.601 37.601 0 0010.418-5.43 37.918 37.918 0 008.188-8.276 37.584 37.584 0 005.321-10.483l.013-.038.018-.037a47.153 47.153 0 003.688-10.126c.861-3.6 1.297-7.32 1.297-11.056 0-3.216-.324-6.43-.963-9.553a47.16 47.16 0 00-7.131-16.947 47.767 47.767 0 00-5.788-7.015 47.42 47.42 0 00-15.066-10.158 47.168 47.168 0 00-8.896-2.761 47.755 47.755 0 00-9.553-.963c-5.325 0-10.553.876-15.536 2.605l-.421.146-.218-.388a47.645 47.645 0 00-17.061-17.515 47.149 47.149 0 00-11.474-4.933 47.507 47.507 0 00-12.806-1.75A47.201 47.201 0 0071.5 40.275a47.434 47.434 0 00-10.376 12.932 46.956 46.956 0 00-5.33 16.085l-.06.424-.426.033c-4.771.374-9.361 1.63-13.643 3.733A37.729 37.729 0 0030.623 81.7a37.64 37.64 0 00-10.09 25.697 37.53 37.53 0 002.967 14.7 37.744 37.744 0 003.482 6.414 38.025 38.025 0 0010.201 10.202 37.73 37.73 0 006.415 3.481 37.53 37.53 0 0014.7 2.968h108.386zm0 .532H58.297c-21.15 0-38.297-17.146-38.297-38.297 0-20.13 15.532-36.634 35.266-38.179C58.53 45.924 78.536 28 102.729 28c17.948 0 33.592 9.865 41.805 24.469a47.86 47.86 0 0115.711-2.635c26.471 0 47.929 21.46 47.929 47.93a47.73 47.73 0 01-5.041 21.421c-4.971 15.383-19.411 26.508-36.449 26.508z" fill="#fff" fill-opacity=".5"/></g><defs><linearGradient id="dpaint0_linear_1506_807" x1="114.101" y1="28.001" x2="168.764" y2="160.161" gradientUnits="userSpaceOnUse"><stop stop-color="#fff" stop-opacity=".604"/><stop offset="1" stop-color="#fff" stop-opacity=".2"/></linearGradient><filter id="dfilter0_d_1506_807" x="0" y="0" width="248.174" height="177.694" filterUnits="userSpaceOnUse" color-interpolation-filters="sRGB"><feFlood flood-opacity="0" result="BackgroundImageFix"/><feColorMatrix in="SourceAlpha" values="0 0 0 0 0 0 0 0 0 0 0 0 0 0 0 0 0 0 127 0" result="hardAlpha"/><feOffset dx="10" dy="2"/><feGaussianBlur stdDeviation="15"/><feColorMatrix values="0 0 0 0 0 0 0 0 0 0 0 0 0 0 0 0 0 0 0.25 0"/><feBlend in2="BackgroundImageFix" result="effect1_dropShadow_1506_807"/><feBlend in="SourceGraphic" in2="effect1_dropShadow_1506_807" result="shape"/></filter></defs></svg><svg width="200" height="200" fill="none" viewBox="0 0 200 200" id="Dust_-_Sand_-_Ash" x="416" y="405" xmlns="http://www.w3.org/2000/svg"><g filter="url(#efilter0_d_1506_813)" fill="#BBB185"><circle cx="43" cy="47" r="5"/><circle cx="43" cy="89" r="5"/><circle cx="43" cy="131" r="5"/><circle cx="56" cy="68" r="5"/><circle cx="56" cy="110" r="5"/><circle cx="56" cy="152" r="5"/><circle cx="68" cy="47" r="5"/><circle cx="68" cy="89" r="5"/><circle cx="68" cy="131" r="5"/><circle cx="81" cy="68" r="5"/><circle cx="81" cy="110" r="5"/><circle cx="81" cy="152" r="5"/><circle cx="93" cy="47" r="5"/><circle cx="93" cy="89" r="5"/><circle cx="93" cy="131" r="5"/><circle cx="106" cy="68" r="5"/><circle cx="106" cy="110" r="5"/><circle cx="106" cy="152" r="5"/><circle cx="118" cy="47" r="5"/><circle cx="118" cy="89" r="5"/><circle cx="118" cy="131" r="5"/><circle cx="131" cy="68" r="5"/><circle cx="131" cy="110" r="5"/><circle cx="131" cy="152" r="5"/><circle cx="143" cy="47" r="5"/><circle cx="143" cy="89" r="5"/><circle cx="143" cy="131" r="5"/><circle cx="156" cy="68" r="5"/><circle cx="156" cy="110" r="5"/><circle cx="156" cy="152" r="5"/></g><defs><filter id="efilter0_d_1506_813" x="27" y="29" width="153" height="145" filterUnits="userSpaceOnUse" color-interpolation-filters="sRGB"><feFlood flood-opacity="0" result="BackgroundImageFix"/><feColorMatrix in="SourceAlpha" values="0 0 0 0 0 0 0 0 0 0 0 0 0 0 0 0 0 0 127 0" result="hardAlpha"/><feOffset dx="4" dy="2"/><feGaussianBlur stdDeviation="7.5"/><feComposite in2="hardAlpha" operator="out"/><feColorMatrix values="0 0 0 0 0.854167 0 0 0 0 0.854167 0 0 0 0 0.854167 0 0 0 1 0"/><feBlend in2="BackgroundImageFix" result="effect1_dropShadow_1506_813"/><feBlend in="SourceGraphic" in2="effect1_dropShadow_1506_813" result="shape"/></filter></defs></svg><svg fill="none" stroke="#fff" width="24" height="24" viewBox="0 0 24 24" id="Logout" x="785" y="487" xmlns="http://www.w3.org/2000/svg"><path stroke-linecap="round" stroke-linejoin="round" stroke-width="2" d="M17 16l4-4m0 0l-4-4m4 4H7m6 4v1a3 3 0 01-3 3H6a3 3 0 01-3-3V7a3 3 0 013-3h4a3 3 0 013 3v1"/></svg><svg width="200" height="200" fill="none" viewBox="0 0 200 200" id="Mist_-_Smoke_-_Haze_-Fog" x="747" xmlns="http://www.w3.org/2000/svg"><g filter="url(#gfilter0_d_1506_812)" fill-rule="evenodd" clip-rule="evenodd" fill="#fff"><path d="M98.555 91.913c-2.234.865-4.117 1.927-5.172 2.672a5 5 0 11-5.766-8.17c1.778-1.255 4.395-2.693 7.328-3.828C97.858 81.46 101.414 80.5 105 80.5c4.406 0 7.333 1.853 9.253 3.069l.313.197c1.792 1.126 2.894 1.734 4.934 1.734 2.254 0 4.108-.769 6.514-1.972.202-.101.419-.212.649-.33 2.09-1.07 5.27-2.698 8.837-2.698 3.631 0 6.931 1.671 9.093 2.766l.518.262c2.58 1.29 4.219 1.972 5.889 1.972 1.224 0 3.18-.514 5.289-1.447.99-.438 1.885-.912 2.588-1.34.35-.213.629-.4.833-.55.186-.136.262-.206.262-.206l-.001.001a5 5 0 017.065 7.078c-1.492 1.49-4.167 3.04-6.7 4.161-2.599 1.15-6.06 2.303-9.336 2.303-4.306 0-7.901-1.798-10.32-3.008l-.041-.02c-2.87-1.435-4.074-1.972-5.139-1.972-1.041 0-2.059.495-5.014 1.972-2.594 1.297-6.24 3.028-10.986 3.028-4.96 0-8.066-1.892-10.254-3.266-2.069-1.3-2.816-1.734-4.246-1.734-1.914 0-4.191.54-6.445 1.413zM88.055 137.913c-2.234.865-4.117 1.927-5.172 2.672a5 5 0 01-5.766-8.17c1.778-1.255 4.395-2.693 7.328-3.828 2.913-1.127 6.47-2.087 10.055-2.087 4.406 0 7.333 1.853 9.253 3.069l.313.197c1.792 1.126 2.894 1.734 4.934 1.734 2.254 0 4.108-.769 6.514-1.972.202-.101.419-.212.649-.33 2.09-1.07 5.27-2.698 8.837-2.698 3.631 0 6.931 1.672 9.093 2.767l.518.261c2.58 1.29 4.219 1.972 5.889 1.972 1.224 0 3.18-.514 5.289-1.447.99-.438 1.885-.912 2.588-1.34.35-.213.629-.4.833-.55.186-.136.262-.206.262-.206l-.001.001a5.001 5.001 0 017.065 7.078c-1.492 1.491-4.167 3.041-6.7 4.161-2.599 1.15-6.06 2.303-9.336 2.303-4.306 0-7.901-1.798-10.32-3.008l-.041-.02c-2.87-1.435-4.074-1.972-5.139-1.972-1.041 0-2.059.495-5.014 1.972-2.594 1.297-6.24 3.028-10.986 3.028-4.96 0-8.066-1.892-10.254-3.266-2.069-1.3-2.816-1.734-4.246-1.734-1.914 0-4.191.54-6.445 1.413zM144.129 58.1a5 5 0 01.771 7.03c-1.532 1.908-4.433 4.035-7.313 5.623-2.882 1.59-6.826 3.247-10.628 3.247-4.943 0-9.017-2.54-11.672-4.195l-.099-.062-.333-.207c-1.339-.835-2.346-1.464-3.326-1.933-1.018-.488-1.616-.603-1.981-.603-.347 0-.897.104-1.865.58-.857.422-1.705.954-2.847 1.67-.248.156-.509.32-.788.493C101.196 71.522 97.045 74 91.575 74c-5.732 0-9.255-2.718-11.612-4.563C77.541 67.54 76.735 67 75.288 67c-2.047 0-4.549.725-7.095 1.953-2.507 1.21-4.651 2.71-5.89 3.801a5 5 0 01-6.606-7.508c1.944-1.71 4.854-3.709 8.15-5.3C67.107 58.376 71.157 57 75.288 57c5.07 0 8.387 2.623 10.467 4.269l.374.294C88.24 63.218 89.444 64 91.575 64c2.393 0 4.42-1.021 7.185-2.743l.62-.39c1.144-.72 2.521-1.587 3.889-2.26 1.7-.836 3.818-1.607 6.279-1.607 2.443 0 4.583.76 6.303 1.585 1.513.725 3 1.655 4.231 2.425l.395.247c2.963 1.846 4.747 2.743 6.482 2.743 1.252 0 3.393-.676 5.799-2.003 2.41-1.33 4.001-2.701 4.342-3.126a5 5 0 017.029-.77zM118.033 104.025a5 5 0 01.942 7.008c-1.467 1.922-4.248 4.066-7.01 5.668-2.747 1.592-6.578 3.299-10.321 3.299-4.835 0-8.794-2.595-11.295-4.235l-.127-.083-.31-.203c-1.281-.84-2.225-1.459-3.14-1.92-.948-.478-1.447-.559-1.69-.559-.224 0-.676.069-1.576.535-.799.413-1.59.935-2.675 1.651l-.755.496C77.377 117.45 73.339 120 67.986 120c-5.626 0-9.068-2.809-11.292-4.64-2.342-1.928-3.009-2.36-4.2-2.36-1.843 0-4.153.691-6.554 1.909-2.357 1.195-4.378 2.682-5.545 3.762a5 5 0 01-6.79-7.342c1.86-1.72 4.647-3.733 7.811-5.338 3.12-1.582 7.043-2.991 11.077-2.991 4.985 0 8.234 2.706 10.193 4.338l.364.302c2.028 1.669 3.083 2.36 4.936 2.36 2.127 0 3.966-.95 6.61-2.682l.584-.386c1.088-.72 2.414-1.598 3.732-2.279 1.637-.847 3.723-1.653 6.17-1.653 2.428 0 4.534.794 6.19 1.629 1.457.734 2.886 1.674 4.054 2.442.13.084.254.167.376.247 2.85 1.866 4.448 2.682 5.942 2.682 1.065 0 3.022-.627 5.305-1.951 2.269-1.315 3.762-2.671 4.076-3.082a5 5 0 017.008-.942z"/></g><defs><filter id="gfilter0_d_1506_812" x="21" y="44" width="166.5" height="114.501" filterUnits="userSpaceOnUse" color-interpolation-filters="sRGB"><feFlood flood-opacity="0" result="BackgroundImageFix"/><feColorMatrix in="SourceAlpha" values="0 0 0 0 0 0 0 0 0 0 0 0 0 0 0 0 0 0 127 0" result="hardAlpha"/><feOffset dx="4" dy="2"/><feGaussianBlur stdDeviation="7.5"/><feComposite in2="hardAlpha" operator="out"/><feColorMatrix values="0 0 0 0 1 0 0 0 0 1 0 0 0 0 1 0 0 0 0.596 0"/><feBlend in2="BackgroundImageFix" result="effect1_dropShadow_1506_812"/><feBlend in="SourceGraphic" in2="effect1_dropShadow_1506_812" result="shape"/></filter></defs></svg><svg width="249" height="204" fill="none" viewBox="0 0 249 204" id="Rain" x="249" xmlns="http://www.w3.org/2000/svg"><path d="M61.626 151.552c.852.009 9.49 13.495 9.49 18.736a9.49 9.49 0 01-18.979 0c0-5.24 8.638-18.746 9.49-18.736z" fill="#42A0F0"/><path d="M54.392 173.834c.948.29 2.153-.902 2.691-2.663.539-1.76.206-3.423-.742-3.713-.948-.29-2.153.903-2.691 2.664-.539 1.76-.206 3.423.742 3.712z" fill="#fff"/><path d="M111.154 151.552c.852.009 9.489 13.495 9.489 18.736a9.489 9.489 0 01-18.978 0c0-5.24 8.637-18.746 9.489-18.736z" fill="#42A0F0"/><path d="M103.919 173.834c.948.29 2.153-.902 2.691-2.663.539-1.76.207-3.423-.742-3.713-.948-.29-2.153.903-2.691 2.664-.538 1.76-.206 3.423.742 3.712z" fill="#fff"/><path d="M160.681 151.552c.852.009 9.489 13.495 9.489 18.736a9.489 9.489 0 01-18.978 0c0-5.24 8.637-18.746 9.489-18.736z" fill="#42A0F0"/><path d="M153.446 173.834c.948.29 2.153-.902 2.692-2.663.538-1.76.206-3.423-.742-3.713-.949-.29-2.154.903-2.692 2.664-.538 1.76-.206 3.423.742 3.712z" fill="#fff"/><path d="M86.656 110.013c.852.009 9.49 13.495 9.49 18.736a9.49 9.49 0 01-18.979 0c0-5.24 8.638-18.746 9.49-18.736z" fill="#42A0F0"/><path d="M79.422 132.296c.948.289 2.153-.903 2.691-2.664.538-1.76.206-3.423-.742-3.713-.948-.29-2.153.903-2.691 2.664-.539 1.76-.207 3.423.742 3.713z" fill="#fff"/><path d="M138.846 110.013c.852.009 9.489 13.495 9.489 18.736a9.492 9.492 0 01-9.489 9.489 9.492 9.492 0 01-9.489-9.489c0-5.24 8.638-18.746 9.489-18.736z" fill="#42A0F0"/><path d="M131.612 132.296c.948.289 2.153-.903 2.691-2.664.538-1.76.206-3.423-.742-3.713-.948-.29-2.153.903-2.692 2.664-.538 1.76-.206 3.423.743 3.713z" fill="#fff"/><g filter="url(#hfilter0_d_1506_808)"><path d="M160.245 145.694H58.297a38.3 38.3 0 01-28.622-63.713A38.298 38.298 0 0155.266 69.22a47.94 47.94 0 0189.268-16.75 47.954 47.954 0 0158.598 66.717 38.313 38.313 0 01-36.448 26.507h-6.439z" fill="url(#hpaint0_linear_1506_808)"/><path d="M166.684 145.161c4.111 0 8.153-.657 12.014-1.951a37.61 37.61 0 0010.417-5.43 37.892 37.892 0 008.188-8.275 37.581 37.581 0 005.322-10.482l.013-.038.018-.036a47.15 47.15 0 003.689-10.127 47.605 47.605 0 001.297-11.058c0-3.216-.324-6.43-.963-9.553a47.16 47.16 0 00-7.132-16.947 47.704 47.704 0 00-12.803-12.803 47.178 47.178 0 00-16.947-7.132 47.738 47.738 0 00-9.552-.962 47.29 47.29 0 00-15.536 2.605l-.421.145-.218-.387a47.644 47.644 0 00-17.061-17.515 47.149 47.149 0 00-11.474-4.933 47.51 47.51 0 00-12.806-1.75A47.201 47.201 0 0071.5 40.275a47.434 47.434 0 00-10.376 12.932 46.956 46.956 0 00-5.33 16.085l-.06.424-.426.033c-4.771.374-9.361 1.63-13.643 3.733A37.729 37.729 0 0030.623 81.7a37.64 37.64 0 00-10.09 25.697 37.53 37.53 0 002.967 14.7 37.744 37.744 0 003.482 6.414 38.025 38.025 0 0010.201 10.202 37.73 37.73 0 006.415 3.481 37.53 37.53 0 0014.7 2.968h108.386zm0 .532H58.297c-21.15 0-38.297-17.146-38.297-38.297 0-20.13 15.532-36.634 35.266-38.179C58.53 45.924 78.536 28 102.729 28c17.948 0 33.592 9.864 41.805 24.468a47.86 47.86 0 0115.711-2.634c26.47 0 47.929 21.46 47.929 47.93 0 7.7-1.815 14.976-5.042 21.423-4.973 15.381-19.411 26.506-36.448 26.506z" fill="#fff" fill-opacity=".5"/></g><defs><linearGradient id="hpaint0_linear_1506_808" x1="114.101" y1="28.001" x2="168.763" y2="160.161" gradientUnits="userSpaceOnUse"><stop stop-color="#fff" stop-opacity=".604"/><stop offset="1" stop-color="#fff" stop-opacity=".2"/></linearGradient><filter id="hfilter0_d_1506_808" x="0" y="0" width="248.174" height="177.694" filterUnits="userSpaceOnUse" color-interpolation-filters="sRGB"><feFlood flood-opacity="0" result="BackgroundImageFix"/><feColorMatrix in="SourceAlpha" values="0 0 0 0 0 0 0 0 0 0 0 0 0 0 0 0 0 0 127 0" result="hardAlpha"/><feOffset dx="10" dy="2"/><feGaussianBlur stdDeviation="15"/><feColorMatrix values="0 0 0 0 0 0 0 0 0 0 0 0 0 0 0 0 0 0 0.25 0"/><feBlend in2="BackgroundImageFix" result="effect1_dropShadow_1506_808"/><feBlend in="SourceGraphic" in2="effect1_dropShadow_1506_808" result="shape"/></filter></defs></svg><svg width="249" height="209" fill="none" viewBox="0 0 249 209" id="Snow" x="498" xmlns="http://www.w3.org/2000/svg"><path fill-rule="evenodd" clip-rule="evenodd" d="M75.695 111.521a2.489 2.489 0 013.414.8l35.512 56.82a2.456 2.456 0 01-.791 3.396 2.49 2.49 0 01-3.414-.801l-35.512-56.82a2.455 2.455 0 01.791-3.395z" fill="#42A0F0"/><path fill-rule="evenodd" clip-rule="evenodd" d="M89.961 108.942c1.315.334 2.109 1.688 1.772 3.024l-4.083 16.218c-.336 1.336-1.675 2.149-2.99 1.815-1.316-.334-2.109-1.688-1.772-3.025l4.083-16.217c.336-1.337 1.675-2.149 2.99-1.815z" fill="#42A0F0"/><path fill-rule="evenodd" clip-rule="evenodd" d="M66.75 123.584c.266-1.352 1.562-2.235 2.893-1.971l16.415 3.248c1.33.264 2.193 1.573 1.926 2.925-.267 1.352-1.562 2.235-2.893 1.972l-16.415-3.249c-1.331-.263-2.194-1.573-1.927-2.925zM102.112 157.632c.288-1.348 1.597-2.21 2.923-1.925l16.099 3.456c1.327.285 2.169 1.608 1.881 2.956-.288 1.348-1.597 2.209-2.923 1.925l-16.1-3.456c-1.326-.285-2.168-1.609-1.88-2.956z" fill="#42A0F0"/><path fill-rule="evenodd" clip-rule="evenodd" d="M105.47 155.473c1.309.355 2.081 1.722 1.724 3.053l-4.406 16.415c-.357 1.331-1.708 2.122-3.018 1.766-1.31-.355-2.082-1.722-1.724-3.052l4.405-16.415c.358-1.331 1.709-2.122 3.019-1.767zM111.735 110.442c1.139.604 1.509 2.134.827 3.417l-31.45 59.164c-.683 1.284-2.16 1.835-3.299 1.231-1.139-.603-1.51-2.133-.827-3.417l31.451-59.164c.683-1.284 2.159-1.835 3.298-1.231z" fill="#42A0F0"/><path fill-rule="evenodd" clip-rule="evenodd" d="M120.83 121.112c.285 1.341-.539 2.788-1.84 3.232l-15.781 5.396c-1.301.444-2.586-.282-2.871-1.622-.285-1.34.539-2.787 1.84-3.232l15.781-5.395c1.301-.445 2.586.281 2.871 1.621z" fill="#42A0F0"/><path fill-rule="evenodd" clip-rule="evenodd" d="M97.226 108.693c1.278-.539 2.618.083 2.995 1.388l4.645 16.11c.376 1.305-.355 2.8-1.632 3.339-1.278.538-2.618-.083-2.995-1.389l-4.645-16.109c-.376-1.306.354-2.801 1.632-3.339zM85.414 156.341c1.284-.517 2.613.128 2.969 1.441l4.32 15.935c.355 1.314-.396 2.799-1.68 3.317-1.283.518-2.612-.128-2.968-1.441l-4.32-15.935c-.356-1.314.396-2.799 1.68-3.317z" fill="#42A0F0"/><path fill-rule="evenodd" clip-rule="evenodd" d="M88.283 157.803c.264 1.347-.58 2.783-1.885 3.206l-16.11 5.227c-1.305.423-2.577-.325-2.842-1.672-.264-1.348.58-2.783 1.886-3.206l16.11-5.227c1.305-.423 2.577.325 2.841 1.672zM130.322 141.264c-.038 1.463-1.116 2.687-2.407 2.732l-66.963 2.345c-1.29.045-2.306-1.105-2.268-2.569.038-1.463 1.115-2.687 2.406-2.732l66.963-2.345c1.291-.045 2.307 1.105 2.269 2.569z" fill="#42A0F0"/><path fill-rule="evenodd" clip-rule="evenodd" d="M125.736 154.231c-.812 1.178-2.284 1.431-3.288.564l-12.309-10.635c-1.004-.867-1.159-2.526-.346-3.704.812-1.179 2.285-1.431 3.288-.564l12.309 10.634c1.004.868 1.159 2.526.346 3.705z" fill="#42A0F0"/><path fill-rule="evenodd" clip-rule="evenodd" d="M125.295 127.669c.83 1.076.701 2.753-.288 3.744l-12.299 12.322c-.99.991-2.464.922-3.294-.155-.831-1.077-.701-2.753.288-3.744l12.299-12.322c.989-.991 2.464-.922 3.294.155zM78.104 141.271c.815 1.092.663 2.767-.339 3.741l-12.287 11.95c-1.002.975-2.474.88-3.29-.212-.814-1.092-.662-2.767.34-3.741l12.287-11.95c1.002-.974 2.474-.879 3.29.212z" fill="#42A0F0"/><path fill-rule="evenodd" clip-rule="evenodd" d="M77.692 144.398c-.828 1.165-2.303 1.392-3.294.506l-12.322-11.005c-.99-.886-1.123-2.548-.295-3.713.828-1.165 2.302-1.392 3.293-.507l12.322 11.006c.991.885 1.124 2.547.296 3.713zM166.194 148.161a1.471 1.471 0 01.756 1.952l-13.512 30.344a1.502 1.502 0 01-1.967.767 1.473 1.473 0 01-.756-1.953l13.512-30.344a1.501 1.501 0 011.967-.766z" fill="#42A0F0"/><path fill-rule="evenodd" clip-rule="evenodd" d="M171.234 153.571c.276.792-.119 1.649-.882 1.915l-7.628 2.651c-.762.265-1.604-.163-1.88-.955-.276-.792.118-1.649.881-1.914l7.628-2.651c.763-.265 1.605.162 1.881.954z" fill="#42A0F0"/><path fill-rule="evenodd" clip-rule="evenodd" d="M158.389 147.725c.737-.331 1.609.023 1.949.79l3.449 7.796c.34.767.017 1.657-.719 1.988-.737.331-1.609-.022-1.949-.789l-3.449-7.797c-.34-.767-.017-1.657.719-1.988zM154.198 171.696c.742-.319 1.61.049 1.937.821l3.277 7.722c.327.772-.008 1.656-.75 1.975-.743.319-1.61-.049-1.937-.821l-3.277-7.722c-.328-.772.008-1.656.75-1.975z" fill="#42A0F0"/><path fill-rule="evenodd" clip-rule="evenodd" d="M156.407 172.85c.264.796-.144 1.646-.911 1.899l-7.797 2.567c-.767.252-1.603-.189-1.866-.985-.264-.796.143-1.646.91-1.899l7.797-2.567c.767-.252 1.603.188 1.867.985zM176.635 162.902c.069.864-.509 1.631-1.29 1.713l-33.034 3.47c-.781.082-1.47-.552-1.538-1.416-.069-.864.508-1.631 1.289-1.713l33.035-3.47c.781-.082 1.469.552 1.538 1.416z" fill="#42A0F0"/><path fill-rule="evenodd" clip-rule="evenodd" d="M174.771 170.012c-.458.682-1.349.805-1.991.273l-6.47-5.361c-.642-.532-.79-1.516-.332-2.198.458-.683 1.349-.805 1.99-.274l6.471 5.362c.641.531.79 1.515.332 2.198z" fill="#42A0F0"/><path fill-rule="evenodd" clip-rule="evenodd" d="M173.309 156.194c.6.588.672 1.579.16 2.214l-5.232 6.49c-.512.634-1.413.671-2.012.083-.6-.588-.672-1.579-.16-2.213l5.232-6.49c.512-.635 1.413-.672 2.012-.084zM150.452 164.551c.592.598.649 1.59.129 2.215l-5.253 6.306c-.521.625-1.423.647-2.015.049-.591-.598-.649-1.589-.128-2.214l5.253-6.306c.52-.625 1.422-.647 2.014-.05z" fill="#42A0F0"/><path fill-rule="evenodd" clip-rule="evenodd" d="M150.669 166.81c-.468.674-1.362.781-1.996.239l-6.49-5.546c-.634-.542-.769-1.528-.301-2.202.468-.674 1.361-.781 1.996-.239l6.49 5.546c.634.542.769 1.528.301 2.202zM169.238 179.421c-.634.457-1.558.262-2.064-.435l-19.523-26.874c-.507-.698-.404-1.634.229-2.091.633-.457 1.558-.262 2.064.436l19.523 26.873c.507.698.404 1.634-.229 2.091z" fill="#42A0F0"/><path fill-rule="evenodd" clip-rule="evenodd" d="M162.369 181.16c-.806-.177-1.382-.978-1.287-1.791l.961-8.139c.096-.813.827-1.328 1.634-1.151.806.177 1.383.978 1.287 1.791l-.961 8.139c-.095.813-.827 1.328-1.634 1.151z" fill="#42A0F0"/><path fill-rule="evenodd" clip-rule="evenodd" d="M173.316 173.24c-.07.817-.782 1.358-1.591 1.208l-8.249-1.53c-.809-.15-1.409-.934-1.34-1.752.07-.817.782-1.358 1.592-1.208l8.248 1.53c.809.15 1.409.934 1.34 1.752zM154.653 157.621c-.082.815-.804 1.344-1.612 1.181l-8.099-1.634c-.808-.163-1.397-.956-1.315-1.771.083-.815.805-1.344 1.613-1.181l8.099 1.634c.808.163 1.396.956 1.314 1.771z" fill="#42A0F0"/><path fill-rule="evenodd" clip-rule="evenodd" d="M153.093 158.682c-.805-.189-1.37-.999-1.261-1.809l1.107-8.248c.109-.809.849-1.312 1.654-1.122.805.19 1.37.999 1.261 1.809l-1.107 8.248c-.109.809-.849 1.312-1.654 1.122z" fill="#42A0F0"/><g filter="url(#ifilter0_d_1506_811)"><path d="M160.245 145.694H58.297a38.3 38.3 0 01-28.622-63.713A38.299 38.299 0 0155.266 69.22a47.94 47.94 0 0189.268-16.748 47.953 47.953 0 0158.599 66.714 38.313 38.313 0 01-36.449 26.509h-6.439z" fill="url(#ipaint0_linear_1506_811)"/><path d="M166.684 145.161c4.112 0 8.154-.657 12.015-1.951a37.601 37.601 0 0010.418-5.43 37.918 37.918 0 008.188-8.276 37.584 37.584 0 005.321-10.483l.013-.038.018-.037a47.153 47.153 0 003.688-10.126c.861-3.6 1.297-7.32 1.297-11.056 0-3.216-.324-6.43-.963-9.553a47.16 47.16 0 00-7.131-16.947 47.762 47.762 0 00-5.788-7.015 47.414 47.414 0 00-15.066-10.158 47.168 47.168 0 00-8.896-2.761 47.755 47.755 0 00-9.553-.963c-5.325 0-10.553.876-15.536 2.605l-.421.145-.218-.387a47.645 47.645 0 00-17.061-17.515 47.145 47.145 0 00-24.28-6.683A47.202 47.202 0 0071.5 40.275a47.435 47.435 0 00-10.376 12.932 46.956 46.956 0 00-5.33 16.085l-.06.424-.426.033c-4.771.374-9.361 1.63-13.643 3.733A37.729 37.729 0 0030.623 81.7a37.64 37.64 0 00-10.09 25.697 37.53 37.53 0 002.967 14.7 37.744 37.744 0 003.482 6.414 38.025 38.025 0 0010.201 10.202 37.8 37.8 0 006.415 3.481 37.53 37.53 0 0014.7 2.968h108.386zm0 .532H58.297c-21.15 0-38.297-17.146-38.297-38.297 0-20.13 15.532-36.634 35.266-38.179C58.53 45.924 78.536 28 102.729 28c17.948 0 33.592 9.864 41.805 24.469a47.86 47.86 0 0115.711-2.635c26.471 0 47.929 21.46 47.929 47.93a47.73 47.73 0 01-5.041 21.421c-4.971 15.383-19.411 26.508-36.449 26.508z" fill="#fff" fill-opacity=".5"/></g><defs><linearGradient id="ipaint0_linear_1506_811" x1="114.101" y1="28.001" x2="168.763" y2="160.161" gradientUnits="userSpaceOnUse"><stop stop-color="#fff" stop-opacity=".604"/><stop offset="1" stop-color="#fff" stop-opacity=".2"/></linearGradient><filter id="ifilter0_d_1506_811" x="0" y="0" width="248.174" height="177.694" filterUnits="userSpaceOnUse" color-interpolation-filters="sRGB"><feFlood flood-opacity="0" result="BackgroundImageFix"/><feColorMatrix in="SourceAlpha" values="0 0 0 0 0 0 0 0 0 0 0 0 0 0 0 0 0 0 127 0" result="hardAlpha"/><feOffset dx="10" dy="2"/><feGaussianBlur stdDeviation="15"/><feColorMatrix values="0 0 0 0 0 0 0 0 0 0 0 0 0 0 0 0 0 0 0.25 0"/><feBlend in2="BackgroundImageFix" result="effect1_dropShadow_1506_811"/><feBlend in="SourceGraphic" in2="effect1_dropShadow_1506_811" result="shape"/></filter></defs></svg><svg width="200" height="200" fill="none" viewBox="0 0 200 200" id="Squall" x="747" y="200" xmlns="http://www.w3.org/2000/svg"><g filter="url(#jfilter0_d_1506_804)" fill-rule="evenodd" clip-rule="evenodd" fill="#DADADA"><path d="M141.768 54.31c3.983-1.669 8.598-1.837 13.645.04 10.181 3.788 15.101 13.333 15.104 22.31.004 8.993-4.971 18.423-15.452 21.467-4.565 1.326-12.641 2.159-21.621 2.733-9.173.587-19.864.931-30.01 1.132-10.154.2-19.807.256-26.919.262a1496.978 1496.978 0 01-10.872-.031l-.62-.005-.213-.002.047-5 .048-5h.002l.202.003.609.004c.534.004 1.322.01 2.331.015 2.02.01 4.923.02 8.458.016a1448.9 1448.9 0 0026.73-.26c10.082-.2 20.607-.54 29.568-1.114 9.154-.585 16.132-1.386 19.471-2.356 5.324-1.546 8.243-6.324 8.241-11.86-.001-5.551-2.984-10.855-8.59-12.94-2.846-1.06-4.825-.806-6.294-.19-1.611.674-3.107 2.004-4.447 3.824-1.327 1.803-2.309 3.83-2.967 5.471a28.354 28.354 0 00-.702 1.948 19.353 19.353 0 00-.186.624l-.001.004-.002.008-.001.002a5 5 0 01-9.681-2.503l4.842 1.244c-4.842-1.244-4.842-1.246-4.841-1.248l.004-.015.007-.026.02-.076.066-.238c.056-.197.136-.467.241-.798.21-.662.523-1.578.952-2.648.847-2.111 2.2-4.966 4.195-7.676 1.983-2.694 4.796-5.511 8.636-7.12zM59.857 97.17a5 5 0 015.048-4.952l-.048 5-.048 4.999a5 5 0 01-4.952-5.047zM83.49 127.229v-.014.014a5 5 0 01-1.03-9.947l.515 4.973-.514-4.973.183-.019.52-.052a618.444 618.444 0 019.107-.818 630.237 630.237 0 0122.863-1.478c8.715-.394 18.065-.595 26.398-.295 8.16.293 15.929 1.079 21.136 2.922 5.009 1.773 8.864 4.282 11.32 7.549 2.538 3.374 3.318 7.223 2.657 10.909-1.255 6.991-7.396 12.534-14.072 14.746-3.493 1.157-6.722 1.244-9.606.482-2.847-.752-5.046-2.248-6.661-3.789-1.6-1.528-2.697-3.166-3.387-4.385a18.629 18.629 0 01-1.008-2.061l-.066-.167-.023-.061-.009-.024-.004-.011-.002-.005c-.001-.003-.002-.005 4.564-1.678l-4.566 1.673a5 5 0 019.376-3.478 9.05 9.05 0 00.438.883c.365.644.898 1.418 1.593 2.081.68.649 1.44 1.124 2.309 1.354.833.22 2.077.3 3.906-.306 4.245-1.407 6.942-4.608 7.375-7.021.182-1.016.02-2.034-.806-3.132-.907-1.207-2.836-2.777-6.664-4.132-3.63-1.285-10.033-2.063-18.16-2.356-7.953-.286-17.004-.096-25.586.292-8.569.387-16.601.969-22.495 1.454-2.945.242-5.351.461-7.019.618-.834.078-1.483.142-1.921.185l-.497.05-.163.017zm67.703 10.046v-.001.001zm0 0c.001.003.002.005-4.693 1.725l4.695-1.72-.002-.005zM30.733 124.882a5 5 0 015-5h21.302a5 5 0 010 10H35.733a5 5 0 01-5-5z"/><path d="M110.851 65.705a5 5 0 01-4.495 5.459l-.482-4.977.482 4.977-.309.03-.874.08c-.76.07-1.865.17-3.249.29-2.768.238-6.66.556-11.157.874-8.969.635-20.448 1.276-30.256 1.276-9.74 0-18.708-.34-25.237-.68-3.267-.17-5.93-.34-7.779-.468a299.653 299.653 0 01-2.705-.2l-.148-.012-.055-.004.413-4.983-.413 4.983a5 5 0 01.826-9.966l.04.003.132.01.532.042c.47.036 1.169.088 2.069.15 1.8.125 4.404.292 7.608.458 6.411.334 15.199.667 24.717.667 9.452 0 20.654-.622 29.551-1.25a726.454 726.454 0 0014.195-1.148c.371-.034.657-.06.849-.079l.286-.027a5 5 0 015.459 4.495z"/></g><defs><filter id="jfilter0_d_1506_804" x="9" y="40" width="186.869" height="128.723" filterUnits="userSpaceOnUse" color-interpolation-filters="sRGB"><feFlood flood-opacity="0" result="BackgroundImageFix"/><feColorMatrix in="SourceAlpha" values="0 0 0 0 0 0 0 0 0 0 0 0 0 0 0 0 0 0 127 0" result="hardAlpha"/><feOffset dx="4" dy="2"/><feGaussianBlur stdDeviation="7.5"/><feComposite in2="hardAlpha" operator="out"/><feColorMatrix values="0 0 0 0 0.854167 0 0 0 0 0.854167 0 0 0 0 0.854167 0 0 0 1 0"/><feBlend in2="BackgroundImageFix" result="effect1_dropShadow_1506_804"/><feBlend in="SourceGraphic" in2="effect1_dropShadow_1506_804" result="shape"/></filter></defs></svg><svg width="248" height="198" fill="none" viewBox="0 0 248 198" id="Thunderstorm" x="249" y="204" xmlns="http://www.w3.org/2000/svg"><path d="M104.775 106.212h36.218l-20.821 30.576 24.344.46-51.097 60.478 12.381-46.109H83.134l21.641-45.405z" fill="url(#kpaint0_linear_1505_745)"/><path d="M160.739 138.393h15.902l-9.141 13.424 10.688.202-22.435 26.553 5.436-20.244h-9.949l9.499-19.935z" fill="url(#kpaint1_linear_1505_745)"/><path d="M50.603 151.969h15.902l-9.141 13.425 10.688.202-22.435 26.553 5.437-20.245h-9.95l9.5-19.935z" fill="url(#kpaint2_linear_1505_745)"/><g filter="url(#kfilter0_d_1505_745)"><path d="M160.114 145.585H58.261a38.264 38.264 0 01-3.028-76.404 47.896 47.896 0 0189.185-16.733 47.909 47.909 0 0158.544 66.655 38.281 38.281 0 01-36.414 26.482h-6.434z" fill="url(#kpaint3_linear_1505_745)"/><path d="M166.548 145.052c4.107 0 8.146-.655 12.003-1.949a37.585 37.585 0 0010.408-5.425 37.885 37.885 0 008.18-8.267 37.55 37.55 0 005.317-10.472l.012-.039.018-.036a47.116 47.116 0 003.687-10.117 47.62 47.62 0 001.295-11.048c0-3.213-.324-6.424-.962-9.544a47.078 47.078 0 00-7.125-16.93 47.697 47.697 0 00-12.791-12.792 47.127 47.127 0 00-16.931-7.125 47.71 47.71 0 00-9.544-.962c-5.321 0-10.543.876-15.522 2.603l-.42.145-.218-.387a47.6 47.6 0 00-17.045-17.499 47.101 47.101 0 00-24.257-6.676 47.159 47.159 0 00-31.2 11.73 47.39 47.39 0 00-10.367 12.92 46.917 46.917 0 00-5.326 16.071l-.06.423-.425.034a37.391 37.391 0 00-13.63 3.73 37.697 37.697 0 00-11.032 8.21 37.605 37.605 0 00-10.08 25.673c0 5.093.996 10.034 2.964 14.686a37.746 37.746 0 003.478 6.408 38.04 38.04 0 004.608 5.585 38.043 38.043 0 005.584 4.607 37.497 37.497 0 0021.095 6.443h108.286zm0 .532H58.262C37.13 145.584 20 128.454 20 107.323c0-20.113 15.517-36.6 35.233-38.144C58.495 45.908 78.483 28 102.653 28c17.931 0 33.56 9.855 41.766 24.446a47.808 47.808 0 0115.696-2.632C186.561 49.814 208 71.254 208 97.7a47.681 47.681 0 01-5.038 21.403c-4.968 15.367-19.393 26.482-36.414 26.482z" fill="#fff" fill-opacity=".5"/></g><defs><linearGradient id="kpaint0_linear_1505_745" x1="108.178" y1="151.969" x2="79.506" y2="141.458" gradientUnits="userSpaceOnUse"><stop stop-color="#FFD100"/><stop offset="1" stop-color="#FFF0AA"/></linearGradient><linearGradient id="kpaint1_linear_1505_745" x1="162.235" y1="158.483" x2="149.647" y2="153.868" gradientUnits="userSpaceOnUse"><stop stop-color="#FFD100"/><stop offset="1" stop-color="#FFF0AA"/></linearGradient><linearGradient id="kpaint2_linear_1505_745" x1="52.099" y1="172.059" x2="39.511" y2="167.445" gradientUnits="userSpaceOnUse"><stop stop-color="#FFD100"/><stop offset="1" stop-color="#FFF0AA"/></linearGradient><linearGradient id="kpaint3_linear_1505_745" x1="114.013" y1="28.001" x2="168.624" y2="160.039" gradientUnits="userSpaceOnUse"><stop stop-color="#fff" stop-opacity=".604"/><stop offset="1" stop-color="#fff" stop-opacity=".2"/></linearGradient><filter id="kfilter0_d_1505_745" x="0" y="0" width="248" height="177.585" filterUnits="userSpaceOnUse" color-interpolation-filters="sRGB"><feFlood flood-opacity="0" result="BackgroundImageFix"/><feColorMatrix in="SourceAlpha" values="0 0 0 0 0 0 0 0 0 0 0 0 0 0 0 0 0 0 127 0" result="hardAlpha"/><feOffset dx="10" dy="2"/><feGaussianBlur stdDeviation="15"/><feColorMatrix values="0 0 0 0 0.501961 0 0 0 0 0.501961 0 0 0 0 0.501961 0 0 0 0.302 0"/><feBlend in2="BackgroundImageFix" result="effect1_dropShadow_1505_745"/><feBlend in="SourceGraphic" in2="effect1_dropShadow_1505_745" result="shape"/></filter></defs></svg><svg width="216" height="200" fill="none" viewBox="0 0 216 200" id="Tornado" y="405" xmlns="http://www.w3.org/2000/svg"><g filter="url(#lfilter0_d_1506_809)"><path d="M58.562 113.615c0-3.813 2.304-7.395 6.345-10.505-13.701-5.82-22.333-14.298-22.333-23.738 0-17.548 29.823-31.774 66.614-31.774 36.79 0 66.613 14.226 66.613 31.774 0 9.533-8.796 18.082-22.731 23.906 3.907 3.071 6.128 6.592 6.128 10.337 0 11.929-22.526 21.594-50.317 21.594-27.79 0-50.319-9.668-50.319-21.594z" fill="url(#lpaint0_linear_1506_809)"/><path d="M108.88 134.676c6.761 0 13.319-.568 19.491-1.688 5.952-1.08 11.295-2.626 15.879-4.593 2.251-.966 4.293-2.028 6.069-3.156 1.783-1.133 3.313-2.342 4.546-3.593 2.522-2.559 3.801-5.261 3.801-8.031 0-1.738-.513-3.47-1.523-5.147-.996-1.653-2.477-3.259-4.402-4.771l-.713-.56.837-.35c3.453-1.443 6.599-3.062 9.35-4.81 2.762-1.756 5.139-3.651 7.064-5.632 1.948-2.006 3.444-4.112 4.447-6.26 1.024-2.193 1.543-4.451 1.543-6.713 0-2.083-.441-4.167-1.311-6.194-.852-1.987-2.128-3.946-3.79-5.82-1.643-1.853-3.678-3.641-6.051-5.316-2.358-1.665-5.069-3.232-8.056-4.657-2.993-1.428-6.288-2.724-9.792-3.854a103.831 103.831 0 00-11.258-2.914c-8.178-1.65-16.866-2.487-25.823-2.487-8.958 0-17.646.837-25.824 2.487a103.792 103.792 0 00-11.257 2.914c-3.505 1.13-6.8 2.426-9.793 3.854-2.987 1.425-5.698 2.992-8.056 4.657-2.373 1.675-4.408 3.463-6.05 5.315-1.663 1.875-2.938 3.834-3.791 5.822-.87 2.026-1.31 4.11-1.31 6.193 0 2.24.509 4.477 1.513 6.65.985 2.129 2.454 4.217 4.366 6.208 1.89 1.966 4.225 3.849 6.939 5.596 2.702 1.739 5.794 3.352 9.19 4.794l.839.357-.723.555c-1.992 1.533-3.526 3.163-4.558 4.845-1.047 1.706-1.578 3.468-1.578 5.238 0 2.77 1.279 5.472 3.8 8.031 1.234 1.251 2.763 2.46 4.546 3.593 1.776 1.128 3.818 2.19 6.07 3.156 4.583 1.967 9.926 3.513 15.878 4.593 6.173 1.12 12.73 1.688 19.491 1.688zm0 .533c-27.79 0-50.318-9.668-50.318-21.594 0-3.813 2.303-7.396 6.344-10.505-13.7-5.82-22.332-14.298-22.332-23.738 0-17.548 29.824-31.774 66.614-31.774 36.789 0 66.613 14.226 66.613 31.774 0 9.532-8.797 18.082-22.731 23.906 3.907 3.07 6.128 6.592 6.128 10.337 0 11.926-22.528 21.594-50.318 21.594z" fill="#fff" fill-opacity=".5"/></g><path fill-rule="evenodd" clip-rule="evenodd" d="M32.13 79.767c0-5.602 5.15-12.27 17.231-17.828 11.652-5.36 28.1-8.809 46.537-8.809 18.436 0 34.885 3.448 46.536 8.809 12.082 5.558 17.232 12.226 17.232 17.828 0 5.602-5.15 12.27-17.232 17.828-11.651 5.361-28.1 8.809-46.536 8.809-18.437 0-34.885-3.448-46.536-8.809C37.279 92.037 32.13 85.37 32.13 79.767zM95.898 43.13c-19.543 0-37.479 3.634-50.716 9.724C32.375 58.746 22.13 67.896 22.13 79.767c0 10.737 8.382 19.248 19.46 25.136a31.945 31.945 0 00-1.936 3.16c-1.717 3.209-3.154 7.24-3.154 11.437 0 2.075.561 5.094 3.08 8.179 2.437 2.983 6.406 5.661 12.525 7.793 1.443.502 3.025.981 4.761 1.43-.537 1.455-.866 3.147-.866 5.098 0 3.653 1.963 6.746 4.629 9.012 2.663 2.265 6.331 4.006 10.765 5.193 8.885 2.379 21.805 2.794 38.988-.283a5 5 0 10-1.764-9.844c-16.317 2.923-27.647 2.338-34.637.467-3.504-.938-5.68-2.135-6.875-3.151-.964-.819-1.092-1.324-1.106-1.407.003-1.798.67-2.438 1.041-2.742.14-.115.282-.21.422-.292 13.087 1.843 31.867 2.392 58.88.535a4.999 4.999 0 004.645-5.331 4.999 4.999 0 00-5.331-4.645c-39.838 2.739-60.127.047-70.262-3.484-5.006-1.743-7.162-3.565-8.07-4.675-.824-1.009-.825-1.678-.825-1.853 0-2.013.73-4.398 1.971-6.72a20.813 20.813 0 012.511-3.7c12.468 4.632 28.097 7.324 44.916 7.324 19.543 0 37.478-3.634 50.716-9.724 12.807-5.892 23.052-15.042 23.052-26.913 0-11.87-10.245-21.021-23.052-26.913-13.238-6.09-31.173-9.724-50.716-9.724z" fill="#B2B2B2"/><path fill-rule="evenodd" clip-rule="evenodd" d="M47.456 141.597a1.5 1.5 0 010 2.122l-2.674 2.673a1.5 1.5 0 11-2.12-2.121l2.672-2.674a1.502 1.502 0 012.122 0z" fill="#FFD100"/><path fill-rule="evenodd" clip-rule="evenodd" d="M42.661 141.597a1.502 1.502 0 012.121 0l2.674 2.674a1.5 1.5 0 11-2.122 2.121l-2.673-2.673a1.501 1.501 0 010-2.122zM43.728 48.4a1.5 1.5 0 010 2.122l-2.673 2.674a1.5 1.5 0 01-2.122-2.122l2.674-2.673a1.5 1.5 0 012.121 0z" fill="#FFD100"/><path fill-rule="evenodd" clip-rule="evenodd" d="M38.933 48.4a1.5 1.5 0 012.122 0l2.673 2.674a1.5 1.5 0 01-2.121 2.122l-2.674-2.674a1.5 1.5 0 010-2.121zM157.694 130.414a1.5 1.5 0 010 2.121l-2.674 2.673a1.5 1.5 0 11-2.121-2.121l2.674-2.673a1.5 1.5 0 012.121 0z" fill="#FFD100"/><path fill-rule="evenodd" clip-rule="evenodd" d="M152.899 130.414a1.5 1.5 0 012.121 0l2.674 2.673a1.5 1.5 0 11-2.121 2.121l-2.674-2.673a1.5 1.5 0 010-2.121zM172.073 97.396a1.501 1.501 0 010 2.12l-2.674 2.674a1.5 1.5 0 11-2.121-2.121l2.673-2.673a1.5 1.5 0 012.122 0z" fill="#FFD100"/><path fill-rule="evenodd" clip-rule="evenodd" d="M167.278 97.396a1.5 1.5 0 012.121 0l2.674 2.673a1.501 1.501 0 01-2.122 2.121l-2.673-2.673a1.5 1.5 0 010-2.121z" fill="#FFD100"/><defs><linearGradient id="lpaint0_linear_1506_809" x1="96.531" y1="58.637" x2="125.864" y2="138.946" gradientUnits="userSpaceOnUse"><stop stop-color="#fff" stop-opacity=".596"/><stop offset="1" stop-color="#F7F7F7" stop-opacity=".204"/></linearGradient><filter id="lfilter0_d_1506_809" x="22.574" y="19.598" width="193.227" height="147.612" filterUnits="userSpaceOnUse" color-interpolation-filters="sRGB"><feFlood flood-opacity="0" result="BackgroundImageFix"/><feColorMatrix in="SourceAlpha" values="0 0 0 0 0 0 0 0 0 0 0 0 0 0 0 0 0 0 127 0" result="hardAlpha"/><feOffset dx="10" dy="2"/><feGaussianBlur stdDeviation="15"/><feColorMatrix values="0 0 0 0 0.501961 0 0 0 0 0.501961 0 0 0 0 0.501961 0 0 0 0.302 0"/><feBlend in2="BackgroundImageFix" result="effect1_dropShadow_1506_809"/><feBlend in="SourceGraphic" in2="effect1_dropShadow_1506_809" result="shape"/></filter></defs></svg><svg width="14" height="20" viewBox="0 0 24 34" fill="none" id="Vector" x="833" y="487" xmlns="http://www.w3.org/2000/svg"><path d="M.333 4.5c0-1.105.41-2.165 1.14-2.946C2.201.772 3.19.334 4.222.334h15.555c1.031 0 2.02.438 2.75 1.22A4.323 4.323 0 0123.667 4.5v28.126c0 .188-.048.373-.139.534-.09.162-.22.294-.375.383a.919.919 0 01-.997-.05L12 27.626 1.844 33.492a.919.919 0 01-.997.051 1.004 1.004 0 01-.375-.383 1.098 1.098 0 01-.139-.534V4.5zm3.89-2.083c-.516 0-1.011.22-1.376.61-.364.39-.57.92-.57 1.473v26.18l9.184-5.171a.927.927 0 01.539-.175c.192 0 .379.061.539.175l9.183 5.17V4.5c0-.552-.205-1.082-.57-1.473-.364-.39-.858-.61-1.374-.61H4.222z" fill="#8A91AB"/></svg><svg width="14" height="20" fill="none" viewBox="0 0 14 20" id="Vector1" x="847" y="487" xmlns="http://www.w3.org/2000/svg"><path d="M0 2.5C0 1.837.246 1.201.683.732A2.257 2.257 0 012.333 0h9.334c.619 0 1.212.263 1.65.732.437.47.683 1.105.683 1.768v16.875a.66.66 0 01-.083.321.603.603 0 01-.225.23.551.551 0 01-.598-.03L7 16.375l-6.093 3.52a.557.557 0 01-.824-.2.66.66 0 01-.083-.32V2.5zm2.333-1.25c-.31 0-.606.132-.825.366a1.297 1.297 0 00-.341.884v15.708l5.51-3.103a.556.556 0 01.646 0l5.51 3.103V2.5c0-.331-.123-.65-.341-.884a1.129 1.129 0 00-.825-.366H2.333z" fill="#8A91AB"/><path d="M2.333 1.25c-.31 0-.606.132-.825.366a1.297 1.297 0 00-.341.884v15.708l5.51-3.103a.556.556 0 01.646 0l5.51 3.103V2.5c0-.331-.123-.65-.341-.884a1.129 1.129 0 00-.825-.366H2.333z" fill="#8A91AB"/></svg><svg width="24" height="24" fill="none" viewBox="0 0 24 24" id="barometer_1" x="809" y="487" xmlns="http://www.w3.org/2000/svg"><circle cx="12" cy="13" fill="#494F68" r="10.8"/><path d="M14.166 14.105a2.437 2.437 0 00-3.282-3.282L8.281 8.22A.75.75 0 107.22 9.28l2.603 2.603a2.437 2.437 0 003.282 3.282l.614.614a.75.75 0 101.061-1.06l-.614-.615zm-2.171-.172a.937.937 0 11-.001-1.875.937.937 0 010 1.875z" fill="#fff"/></svg><svg width="10" height="18" fill="none" viewBox="0 0 10 18" id="coolicon" x="861" y="487" xmlns="http://www.w3.org/2000/svg"><path d="M8.535.515L.05 9l8.485 8.485 1.415-1.414L2.878 9 9.95 1.929 8.535.515z" fill="#8A91AB"/></svg><svg width="197" height="87" fill="none" viewBox="0 0 197 87" id="Лого" x="747" y="400" xmlns="http://www.w3.org/2000/svg"><circle cx="31.317" cy="27.27" r="5.342" fill="url(#qpaint0_radial_2826_639)"/><g opacity=".67" filter="url(#qfilter0_f_2826_639)"><path d="M42.635 27.988c3.577 3.23 11.973 6.653 8.745 10.231-3.23 3.578-21.685 13.798-29.37 9.848-3.577-3.23 3.206-13.626 6.435-17.204 3.229-3.578 10.612-6.103 14.19-2.875z" fill="url(#qpaint1_linear_2826_639)" fill-opacity=".3"/></g><g filter="url(#qfilter1_ii_2826_639)"><path fill-rule="evenodd" clip-rule="evenodd" d="M37.098 41.933h-7.025a6.331 6.331 0 010-12.663h.347c1.227 0 2.377.332 3.365.91a9.631 9.631 0 019.124-6.547h.477a9.15 9.15 0 110 18.3h-6.288z" fill="#fff"/></g><path d="M72.688 30.297L70.546 38H68.32l-2.984-11.273h2.445l1.774 8.164h.062l2.11-8.164h1.992l2.11 8.164h.062l1.78-8.164h2.446L77.125 38h-2.227l-2.14-7.703h-.07zm11.328.836c-.495 0-.91.17-1.243.508-.328.338-.513.77-.554 1.297h3.554c-.026-.537-.2-.972-.523-1.305-.318-.334-.73-.5-1.234-.5zm1.789 4.305h2.093c-.125.822-.536 1.486-1.234 1.992-.693.5-1.555.75-2.586.75-1.286 0-2.297-.386-3.031-1.157-.73-.77-1.094-1.828-1.094-3.171 0-1.339.365-2.407 1.094-3.204.729-.802 1.71-1.203 2.945-1.203 1.214 0 2.18.38 2.899 1.14.718.761 1.078 1.78 1.078 3.056v.695h-5.774v.14c0 .6.175 1.087.524 1.462.354.37.82.554 1.398.554.417 0 .776-.094 1.078-.281.302-.193.506-.45.61-.773zm6.578 1.046c.505 0 .932-.145 1.281-.437.354-.297.531-.67.531-1.117v-.61l-1.765.11c-.427.03-.758.138-.993.32a.874.874 0 00-.343.719c0 .312.117.56.351.742.235.182.547.273.938.273zm-.75 1.649c-.807 0-1.477-.237-2.008-.711-.531-.474-.797-1.083-.797-1.828 0-.76.281-1.357.844-1.79.562-.432 1.367-.679 2.414-.742l2.11-.124v-.555c0-.386-.128-.688-.383-.906-.25-.22-.592-.329-1.024-.329-.417 0-.758.094-1.023.282-.26.187-.42.44-.477.758h-2.086c.042-.823.393-1.485 1.055-1.985.661-.505 1.539-.758 2.633-.758 1.072 0 1.932.256 2.578.766.646.51.969 1.187.969 2.031V38h-2.204v-1.281h-.046c-.23.437-.579.784-1.047 1.039-.47.25-.972.375-1.508.375zm6.89-10.438h2.282v1.93h1.547v1.719h-1.547v4.008c0 .63.328.945.984.945.214 0 .399-.013.555-.04v1.68c-.266.063-.628.094-1.086.094-.985 0-1.688-.177-2.11-.531-.416-.354-.625-.94-.625-1.758v-4.398h-1.18v-1.719h1.18v-1.93zM103.656 38V26.727h2.242v4.39h.047c.224-.531.56-.937 1.008-1.219.453-.286.995-.43 1.625-.43.922 0 1.638.282 2.149.845.515.557.773 1.322.773 2.296V38h-2.281v-4.906c0-.547-.136-.972-.407-1.274-.265-.307-.653-.46-1.164-.46-.531 0-.95.171-1.257.515-.302.339-.453.786-.453 1.344V38h-2.282zm13.063-6.867c-.495 0-.909.17-1.242.508-.329.338-.513.77-.555 1.297h3.555c-.026-.537-.201-.972-.524-1.305-.318-.334-.729-.5-1.234-.5zm1.789 4.305h2.094c-.125.822-.537 1.486-1.235 1.992-.693.5-1.555.75-2.586.75-1.286 0-2.297-.386-3.031-1.157-.729-.77-1.094-1.828-1.094-3.171 0-1.339.365-2.407 1.094-3.204.729-.802 1.711-1.203 2.945-1.203 1.214 0 2.18.38 2.899 1.14.718.761 1.078 1.78 1.078 3.056v.695h-5.774v.14c0 .6.175 1.087.524 1.462.354.37.82.554 1.398.554.417 0 .776-.094 1.078-.281a1.41 1.41 0 00.61-.773zM121.852 38v-8.375h2.203v1.508h.047c.145-.531.39-.938.734-1.219.344-.281.763-.422 1.258-.422.239 0 .455.029.648.086v2.008c-.213-.089-.489-.133-.828-.133-.562 0-1 .164-1.312.492-.313.328-.469.787-.469 1.375V38h-2.281zm11.007.195c-1.645 0-2.948-.518-3.906-1.554-.953-1.042-1.43-2.47-1.43-4.282 0-1.807.48-3.229 1.438-4.265.958-1.042 2.258-1.563 3.898-1.563.896 0 1.709.177 2.438.532a4.425 4.425 0 011.765 1.5c.443.645.693 1.382.75 2.21h-2.296c-.11-.692-.409-1.247-.899-1.664-.484-.416-1.07-.625-1.758-.625-.89 0-1.601.35-2.132 1.047-.532.698-.797 1.638-.797 2.82 0 1.204.263 2.154.789 2.852.526.693 1.242 1.04 2.148 1.04.698 0 1.284-.194 1.758-.579.474-.385.773-.911.898-1.578h2.297c-.13 1.255-.643 2.255-1.539 3-.896.74-2.036 1.11-3.422 1.11zm6.282-.195V26.727h2.242v4.39h.047c.224-.531.56-.937 1.008-1.219.453-.286.994-.43 1.624-.43.922 0 1.639.282 2.149.845.516.557.773 1.322.773 2.296V38h-2.281v-4.906c0-.547-.135-.972-.406-1.274-.266-.307-.654-.46-1.164-.46-.531 0-.951.171-1.258.515-.302.339-.453.786-.453 1.344V38h-2.281zm13.062-6.867c-.495 0-.909.17-1.242.508-.328.338-.513.77-.555 1.297h3.555c-.026-.537-.201-.972-.523-1.305-.318-.334-.73-.5-1.235-.5zm1.789 4.305h2.094c-.125.822-.537 1.486-1.234 1.992-.693.5-1.555.75-2.586.75-1.287 0-2.297-.386-3.032-1.157-.729-.77-1.093-1.828-1.093-3.171 0-1.339.364-2.407 1.093-3.204.73-.802 1.711-1.203 2.946-1.203 1.213 0 2.179.38 2.898 1.14.719.761 1.078 1.78 1.078 3.056v.695h-5.773v.14c0 .6.174 1.087.523 1.462.354.37.821.554 1.399.554.416 0 .776-.094 1.078-.281.302-.193.505-.45.609-.773zm10.953-2.696h-2.117c-.068-.453-.247-.817-.539-1.094-.286-.276-.659-.414-1.117-.414-.568 0-1.016.23-1.344.688-.323.453-.484 1.08-.484 1.883 0 .817.161 1.453.484 1.906.328.453.779.68 1.352.68.453 0 .823-.128 1.109-.383.287-.26.466-.62.539-1.078h2.125c-.057.99-.43 1.778-1.117 2.367-.688.588-1.581.883-2.68.883-1.271 0-2.276-.388-3.015-1.164-.74-.782-1.11-1.852-1.11-3.211 0-1.339.37-2.399 1.11-3.18.744-.787 1.744-1.18 3-1.18 1.114 0 2.013.308 2.695.922.687.615 1.057 1.406 1.109 2.375zm3.477.242l2.844-3.359h2.586l-3.196 3.594L174.008 38h-2.625l-2.399-3.406-.593.64V38h-2.282V26.727h2.282v6.257h.031z" fill="#fff"/><defs><filter id="qfilter0_f_2826_639" x="-16.881" y="-11.374" width="106.862" height="98.211" filterUnits="userSpaceOnUse" color-interpolation-filters="sRGB"><feFlood flood-opacity="0" result="BackgroundImageFix"/><feBlend in="SourceGraphic" in2="BackgroundImageFix" result="shape"/><feGaussianBlur stdDeviation="18.938" result="effect1_foregroundBlur_2826_639"/></filter><filter id="qfilter1_ii_2826_639" x="8.591" y="11.007" width="50.678" height="40.185" filterUnits="userSpaceOnUse" color-interpolation-filters="sRGB"><feFlood flood-opacity="0" result="BackgroundImageFix"/><feBlend in="SourceGraphic" in2="BackgroundImageFix" result="shape"/><feColorMatrix in="SourceAlpha" values="0 0 0 0 0 0 0 0 0 0 0 0 0 0 0 0 0 0 127 0" result="hardAlpha"/><feOffset dx="6.734" dy="-12.626"/><feGaussianBlur stdDeviation="12.626"/><feComposite in2="hardAlpha" operator="arithmetic" k2="-1" k3="1"/><feColorMatrix values="0 0 0 0 0 0 0 0 0 0 0 0 0 0 0 0 0 0 0.2 0"/><feBlend in2="shape" result="effect1_innerShadow_2826_639"/><feColorMatrix in="SourceAlpha" values="0 0 0 0 0 0 0 0 0 0 0 0 0 0 0 0 0 0 127 0" result="hardAlpha"/><feOffset dx="-15.151" dy="9.259"/><feGaussianBlur stdDeviation="12.626"/><feComposite in2="hardAlpha" operator="arithmetic" k2="-1" k3="1"/><feColorMatrix values="0 0 0 0 1 0 0 0 0 1 0 0 0 0 1 0 0 0 1 0"/><feBlend in2="effect1_innerShadow_2826_639" result="effect2_innerShadow_2826_639"/></filter><radialGradient id="qpaint0_radial_2826_639" cx="0" cy="0" r="1" gradientUnits="userSpaceOnUse" gradientTransform="rotate(132.136 11.316 19.6) scale(11.1308)"><stop stop-color="#FFF72C"/><stop offset="1" stop-color="#DF7800"/></radialGradient><linearGradient id="qpaint1_linear_2826_639" x1="25.81" y1="49.649" x2="46.592" y2="26.326" gradientUnits="userSpaceOnUse"><stop stop-color="#254659"/><stop offset="1" stop-color="#023553"/></linearGradient></defs></svg></svg>