<svg width="14" height="20" viewBox="0 0 24 34" fill="none" xmlns="http://www.w3.org/2000/svg">
<path d="M0.333328 4.50007C0.333328 3.39498 0.743049 2.33516 1.47236 1.55374C2.20167 0.772328 3.19082 0.333334 4.22222 0.333334L19.7778 0.333334C20.8092 0.333334 21.7983 0.772328 22.5276 1.55374C23.2569 2.33516 23.6667 3.39498 23.6667 4.50007V32.6255C23.6666 32.8139 23.6188 32.9988 23.5284 33.1604C23.438 33.3221 23.3084 33.4544 23.1533 33.5433C22.9983 33.6323 22.8236 33.6745 22.648 33.6655C22.4723 33.6565 22.3022 33.5966 22.1558 33.4922L12 27.6275L1.84416 33.4922C1.69776 33.5966 1.52767 33.6565 1.35201 33.6655C1.17635 33.6745 1.0017 33.6323 0.846661 33.5433C0.691623 33.4544 0.562003 33.3221 0.471606 33.1604C0.381208 32.9988 0.333419 32.8139 0.333328 32.6255V4.50007ZM4.22222 2.4167C3.70652 2.4167 3.21194 2.6362 2.84729 3.02691C2.48263 3.41761 2.27777 3.94752 2.27777 4.50007V30.6797L11.4614 25.5087C11.6209 25.395 11.8083 25.3343 12 25.3343C12.1917 25.3343 12.379 25.395 12.5386 25.5087L21.7222 30.6797V4.50007C21.7222 3.94752 21.5174 3.41761 21.1527 3.02691C20.788 2.6362 20.2935 2.4167 19.7778 2.4167H4.22222Z" fill="#8A91AB"/>
</svg>
